<svg width="41" height="40" viewBox="0 0 41 40" fill="none" xmlns="http://www.w3.org/2000/svg">
<path d="M14.05 25.625C15.1 24.9584 16.1375 24.4541 17.1625 24.1125C18.1875 23.7708 19.3 23.6 20.5 23.6C21.7 23.6 22.8167 23.7708 23.85 24.1125C24.8834 24.4541 25.925 24.9584 26.975 25.625C27.7084 24.725 28.2292 23.8166 28.5375 22.9C28.8458 21.9833 29 21.0167 29 20C29 17.5834 28.1875 15.5625 26.5625 13.9375C24.9375 12.3125 22.9166 11.5 20.5 11.5C18.0834 11.5 16.0625 12.3125 14.4375 13.9375C12.8125 15.5625 12 17.5834 12 20C12 21.0167 12.1583 21.9833 12.475 22.9C12.7917 23.8166 13.3167 24.725 14.05 25.625ZM20.4952 20.75C19.5317 20.75 18.7208 20.4192 18.0625 19.7577C17.4042 19.0964 17.075 18.2839 17.075 17.3202C17.075 16.3567 17.4058 15.5458 18.0673 14.8875C18.7286 14.2291 19.5411 13.9 20.5048 13.9C21.4683 13.9 22.2792 14.2308 22.9375 14.8923C23.5958 15.5536 23.925 16.3661 23.925 17.3298C23.925 18.2933 23.5942 19.1041 22.9327 19.7625C22.2714 20.4208 21.4589 20.75 20.4952 20.75ZM20.49 30C19.1041 30 17.8019 29.7375 16.583 29.2125C15.3642 28.6875 14.304 27.9708 13.4025 27.0625C12.5008 26.1542 11.7917 25.093 11.275 23.879C10.7583 22.665 10.5 21.3679 10.5 19.9875C10.5 18.6072 10.7625 17.31 11.2875 16.096C11.8125 14.882 12.5292 13.825 13.4375 12.925C14.3458 12.025 15.407 11.3125 16.621 10.7875C17.835 10.2625 19.1321 10 20.5125 10C21.8928 10 23.19 10.2625 24.404 10.7875C25.618 11.3125 26.675 12.025 27.575 12.925C28.475 13.825 29.1875 14.8834 29.7125 16.1C30.2375 17.3167 30.5 18.6144 30.5 19.9932C30.5 21.3722 30.2375 22.6681 29.7125 23.8807C29.1875 25.0936 28.475 26.1542 27.575 27.0625C26.675 27.9708 25.6156 28.6875 24.3968 29.2125C23.1779 29.7375 21.8756 30 20.49 30Z" fill="#413737"/>
</svg>
