<svg width="17" height="17" viewBox="0 0 17 17" fill="none" xmlns="http://www.w3.org/2000/svg">
<g clip-path="url(#clip0_655_1177)">
<path d="M7.57627 12.8313C7.35133 13.3464 6.63851 13.3464 6.4136 12.8313L5.8285 11.4912C5.30781 10.2987 4.37059 9.34934 3.20153 8.83041L1.59105 8.11554C1.07902 7.88828 1.07902 7.1434 1.59105 6.91612L3.15123 6.22357C4.35035 5.69129 5.30438 4.70682 5.81618 3.47356L6.40887 2.04543C6.62879 1.51546 7.36107 1.51545 7.581 2.04543L8.17367 3.47357C8.68547 4.70682 9.63947 5.69129 10.8386 6.22357L12.3988 6.91612C12.9108 7.1434 12.9108 7.88828 12.3988 8.11554L10.7883 8.83041C9.61927 9.34934 8.68207 10.2987 8.16133 11.4912L7.57627 12.8313ZM3.52637 7.51584C5.05027 8.19228 6.28935 9.30414 6.99492 10.834C7.70053 9.30414 8.9396 8.19228 10.4635 7.51584C8.9214 6.83132 7.6784 5.66526 6.99493 4.1082C6.31146 5.66526 5.06845 6.83132 3.52637 7.51584ZM13.4343 16.0942L13.5988 15.7171C13.8921 15.0447 14.4205 14.5093 15.0797 14.2164L15.5866 13.9911C15.8608 13.8693 15.8608 13.4709 15.5866 13.3491L15.1081 13.1364C14.4319 12.836 13.8941 12.2808 13.6057 11.5855L13.4368 11.178C13.319 10.894 12.9263 10.894 12.8085 11.178L12.6396 11.5855C12.3513 12.2808 11.8135 12.836 11.1373 13.1364L10.6587 13.3491C10.3846 13.4709 10.3846 13.8693 10.6587 13.9911L11.1657 14.2164C11.8249 14.5093 12.3532 15.0447 12.6465 15.7171L12.8111 16.0942C12.9315 16.3703 13.3138 16.3703 13.4343 16.0942ZM12.2578 13.6655L13.1247 12.7957L14 13.6655L13.1247 14.5457L12.2578 13.6655Z" fill="#D677A1"/>
</g>
<defs>
<clipPath id="clip0_655_1177">
<rect width="16" height="16" fill="white" transform="translate(0.5 0.967529)"/>
</clipPath>
</defs>
</svg>
