<svg width="17" height="17" viewBox="0 0 17 17" fill="none" xmlns="http://www.w3.org/2000/svg">
<path d="M11.6944 2.71766C11.8571 2.52538 12.0584 2.36887 12.2854 2.2581C12.5124 2.14733 12.7601 2.08474 13.0129 2.07431C13.2656 2.06389 13.5177 2.10585 13.7532 2.19754C13.9886 2.28922 14.2023 2.42861 14.3805 2.60683C14.5587 2.78505 14.6976 2.99818 14.7883 3.23264C14.8789 3.46709 14.9194 3.71774 14.9071 3.9686C14.8949 4.21945 14.8301 4.46502 14.7169 4.68964C14.6038 4.91426 14.4448 5.11301 14.25 5.27322L5.62497 13.8982L2.11108 14.8566L3.06942 11.3427L11.6944 2.71766Z" stroke="black" stroke-width="0.666667" stroke-linecap="round" stroke-linejoin="round"/>
<path d="M10.4167 3.99536L12.9723 6.55092" stroke="black" stroke-width="0.666667" stroke-linecap="round" stroke-linejoin="round"/>
</svg>
