<svg width="761" height="1012" viewBox="0 0 761 1012" fill="none" xmlns="http://www.w3.org/2000/svg">
<g filter="url(#filter0_f_403_1444)">
<path d="M387.277 489.308C363.37 511.506 333.787 523.743 312.803 544.13C286.079 570.021 276.145 599.58 270.131 624.391C263.146 650.12 266.055 683.728 274.717 718.719C277.915 731.851 281.834 745.221 286.468 759.114C292.863 779.067 301.992 798.014 314.189 815.386C333.76 843.486 361.903 867.312 394.836 885.347C417.234 897.678 441.599 907.456 467.032 915.347C478.227 918.824 489.493 921.902 501.014 924.858C509.485 927.124 518.416 929.002 527.025 932.095C528.547 932.656 529.28 933.519 529.98 934.895C530.575 936.263 529.873 937.39 529.009 938.26C528.1 939.127 527.562 940.223 526.962 940.961C526.247 941.656 525.606 942.032 524.442 941.868C517.073 941.138 507.343 941.122 498.58 940.888C488.588 940.652 478.57 940.307 468.404 939.646C467.757 934.349 466.151 930.138 462.625 927.73C460.8 926.498 457.937 925.566 455.54 926.043C453.435 926.482 451.702 927.668 450.001 928.784C448.229 929.952 446.522 931.051 444.592 931.136C441.32 931.281 438.033 932.732 434.386 934.178C433.067 934.705 431.703 935.234 430.32 935.707C420.65 934.308 410.731 932.492 401.019 930.315C397.542 928.578 394.311 926.968 391.455 926.145C388.871 925.398 386.175 925.529 383.357 925.868C381.823 925.437 380.346 925.017 378.843 924.575C369.124 921.712 359.401 918.35 349.871 914.503C343.35 909.565 336.701 904.353 327.863 898.001C324.052 895.253 320.596 892.012 317.425 888.871C312.688 884.196 308.47 879.668 303.845 876.8C300.734 874.868 298.303 871.822 295.998 868.772C292.885 864.666 289.911 860.466 285.332 858.613C282.432 857.428 279.496 856.516 276.764 855.608C272.408 854.154 268.67 852.827 266.483 850.453C262.385 845.999 257.926 842.91 254.007 840.037C249.291 836.572 245.364 833.407 244.397 829.14C244.248 828.49 244.116 827.721 243.975 826.853C243.216 822.234 242.199 815.08 236.195 807.496C234.045 804.769 231.178 802.54 228.461 800.43C224.483 797.311 220.623 794.043 219.508 789.144C219.434 788.821 219.439 788.458 219.487 788.078C219.556 787.621 219.693 787.139 219.823 786.683C220.121 785.645 220.384 784.743 219.738 784.551C217.842 783.989 215.511 782.805 212.988 781.515C211.135 780.567 209.176 779.559 207.206 778.696C202.102 768.443 196.916 756.945 192.463 745.947C190.318 740.603 188.314 735.324 186.452 730.104C187.893 726.841 189.027 723.228 189.734 719.795C190.641 715.233 189.994 710.175 189.324 703.298C188.806 698.098 188.354 692.198 188.714 685.305C189.266 672.085 187.759 659.042 186.24 650.522C185.909 648.635 185.58 646.743 185.252 644.722C184.125 637.121 182.373 627.482 184.005 608.407C185.686 590.377 190.851 575.323 195.351 564.691C197.657 559.228 199.792 554.841 201.341 551.442C203.993 545.611 207.66 538.76 211.658 532.187C217.873 521.895 224.789 512.466 228.411 506.955C229.712 504.972 231.019 502.912 232.45 500.715C236.447 494.602 241.379 487.392 249.133 478.731C257.206 469.745 262.956 465.302 269.345 461.16C271.951 459.478 275.17 459.217 278.537 458.922C283.293 458.522 288.302 458.088 291.682 453.975C292.48 453.007 293.175 451.791 293.904 450.517C295.23 448.188 296.744 445.602 299.086 444.147C299.913 443.63 300.902 443.477 301.871 443.326C302.938 443.16 303.983 442.996 304.777 442.355C307.732 439.968 310.518 437.403 312.866 435.229C315.935 432.39 318.522 429.992 320.482 428.909C323.998 426.96 326.617 423.712 329.347 420.329C331.424 417.752 333.517 415.136 335.916 413.156C342.855 407.429 351.092 398.122 358.486 387.875C361.263 384.019 365.064 382.035 369.715 379.639C372.635 378.119 375.965 376.365 379.709 373.708C381.847 372.186 382.519 369.946 383.176 367.829C383.775 365.886 384.321 364.085 385.859 363.157C387.217 362.337 389.201 362.87 391.091 363.367C393.191 363.924 395.19 364.421 396.031 362.995C396.472 362.242 396.508 360.865 396.546 359.23C396.56 358.583 396.578 357.895 396.618 357.188C396.871 357.456 397.11 357.682 397.293 357.85C398.591 359.034 400.38 358.444 402.138 357.843C402.841 357.604 403.538 357.361 404.197 357.236C406.246 356.849 408.466 354.904 410.207 352.968C410.505 352.637 410.787 352.307 411.049 351.987C411.766 351.109 412.841 350.685 414.093 350.179C415.204 349.731 416.455 349.218 417.694 348.276C418.399 347.739 419.208 347.541 419.881 347.377C420.368 347.258 420.783 347.157 421.03 346.954C421.243 346.778 420.981 346.296 420.684 345.755C420.47 345.366 420.237 344.945 420.151 344.584C419.947 343.723 420.212 343.037 420.689 342.777C420.909 342.657 421.175 342.632 421.439 342.606C421.747 342.576 422.054 342.55 422.292 342.367C423.412 341.49 423.742 340.077 424.058 338.623C424.407 337.023 424.74 335.376 426.126 334.261C426.563 333.91 427.188 333.646 427.794 333.388C428.427 333.118 429.04 332.851 429.385 332.506C430.781 331.112 430.725 328.881 430.652 326.821C430.601 325.457 430.534 324.185 430.894 323.27C431.554 321.591 430.725 320.014 430.106 318.863C429.786 318.266 429.519 317.781 429.544 317.449C429.718 317.23 429.9 317.012 430.082 316.802C430.302 316.638 430.529 316.469 430.617 316.239C430.623 316.222 430.626 316.203 430.633 316.185C431.698 315.037 432.875 313.963 434.054 312.841C436.688 310.348 439.233 307.795 440.113 304.316C440.299 303.572 440.056 302.596 439.8 301.609C439.487 300.4 439.149 299.18 439.591 298.279C440.643 296.132 442.478 294.291 444.253 292.426C446.923 289.626 449.503 286.604 448.882 283.038C448.678 281.86 448.11 280.615 447.52 279.383C447.191 278.7 446.858 278.002 446.583 277.322C447.346 277.659 448.075 277.928 448.755 278.18C450.156 278.699 451.356 279.144 452.241 279.996C454.344 281.975 457.266 284.499 459.776 285.065C460.458 285.217 461.19 285.476 461.927 285.74C463.774 286.402 465.662 287.092 466.916 286.028C467.759 285.33 469.767 283.358 468.706 281.481C468.475 281.075 467.899 280.715 467.259 280.318C466.107 279.604 464.746 278.765 464.737 277.312C464.735 277.067 464.743 276.803 464.757 276.532C464.811 275.453 464.859 274.247 463.941 273.59C462.884 272.833 461.521 272.644 459.934 272.414C457.866 272.12 455.418 271.74 452.728 270.101C452.195 269.777 452.079 269.361 451.99 269.046C451.927 268.825 451.875 268.655 451.704 268.603C451.509 268.544 451.081 268.519 450.539 268.488C448.626 268.381 445.303 268.15 445.577 266.142C445.649 265.603 445.929 264.999 446.177 264.467C446.543 263.68 446.838 263.022 446.323 262.833C446.127 262.762 445.913 262.697 445.69 262.636C445.874 261.992 446.053 261.348 446.228 260.704C447.007 259.97 447.148 258.772 447.294 257.285C447.33 256.924 447.369 256.544 447.415 256.15C447.728 254.875 448.028 253.584 448.316 252.278C448.709 251.264 449.27 250.199 450.087 249.082C451.723 246.848 454.206 244.937 456.607 242.978C457.619 242.144 458.617 241.303 459.527 240.433C459.619 240.791 459.731 241.115 459.893 241.37C461.004 243.111 463.302 243.932 465.42 244.702C466.828 245.215 468.154 245.709 468.978 246.444C470.486 247.792 472.36 247.825 473.75 247.836C474.47 247.843 475.06 247.851 475.396 248.048C475.664 248.206 475.771 248.533 475.88 248.871C475.975 249.166 476.075 249.472 476.283 249.68C478.813 252.217 480.454 251.707 482.858 250.87C484.182 250.411 485.733 249.862 487.787 249.711C489.956 249.616 490.58 249.75 491.325 251.119C492.473 250.201 493.614 249.269 494.749 248.322C494.709 247.916 494.066 247.565 492.991 247.068C491.074 246.183 490.502 243.692 490.016 241.753C489.793 240.856 489.591 240.079 489.302 239.636C487.762 237.286 485.497 237.92 483.511 238.434C482.417 238.72 481.404 238.976 480.638 238.73C480.31 238.625 479.979 238.752 479.64 238.878C479.378 238.976 479.112 239.076 478.842 239.072C476.878 239.037 475.46 237.711 474.128 236.516C473.365 235.831 472.629 235.186 471.849 234.829C471.612 234.72 471.369 234.634 471.133 234.552C470.789 234.434 470.461 234.319 470.18 234.142C469.54 233.739 469.111 232.919 468.636 232.029C468.392 231.572 468.136 231.1 467.833 230.649C467.441 230.065 466.661 229.866 465.846 229.658C465.27 229.511 464.676 229.358 464.184 229.069C463.294 228.545 462.951 227.47 462.622 226.476C462.479 226.043 462.336 225.626 462.158 225.277C462.085 225.135 461.949 225.072 461.765 225.064C461.084 223.45 460.372 221.929 459.66 220.466C456.049 213.069 452.718 207.183 452.871 197.309C452.894 195.446 452.427 193.499 451.715 191.606C451.112 185.196 450.215 178.711 449.055 172.266C450.36 170.511 451.284 168.518 451.782 166.335C452.71 162.223 451.901 158.569 450.797 154.223C449.978 151.01 449.04 147.52 448.415 143.075C447.381 135.658 445.627 128.107 442.302 120.247C438.985 112.368 434.346 103.767 430.603 97.9579C428.55 94.7507 427.596 90.7256 426.476 86.8063C424.949 81.3513 423.392 76.522 419.434 76.0098C418.181 75.8586 416.47 76.1561 414.817 76.4637C413.64 76.6824 412.492 76.9013 411.55 76.967C410.725 75.6711 409.883 74.3824 408.998 73.0632C408.445 69.791 406.962 65.4154 402.533 63.8701C401.562 62.5681 400.586 61.2902 399.649 60.0697C397.653 57.481 395.396 54.7669 393.266 52.2922C392.561 51.4728 391.862 50.6702 391.086 49.82C391.079 49.8118 391.072 49.8036 391.065 49.7954C389.539 48.1117 387.999 46.478 386.492 44.9271C385.861 44.2737 385.167 43.5853 384.476 42.9134C382.717 41.2031 380.98 39.5865 379.23 38.039C378.252 37.1871 377.266 36.3581 376.284 35.5544C374.684 34.2477 373.133 33.0292 371.379 31.7885C368.66 29.8431 365.867 28.0618 362.944 26.5102C362.474 26.2579 362.087 25.8269 361.863 25.2881C361.64 24.7487 361.594 24.1451 361.755 23.5814C361.917 23.018 362.28 22.5278 362.783 22.2055C363.285 21.8845 363.887 21.7639 364.456 21.8509C367.99 22.4062 371.506 23.2647 375.003 24.3506C377.246 25.0631 379.289 25.7626 381.408 26.5811C382.709 27.0837 384.017 27.6239 385.326 28.1914C387.689 29.1971 390.066 30.3024 392.477 31.5276C393.425 32.0082 394.378 32.5074 395.267 32.9717C397.383 34.0846 399.548 35.3061 401.71 36.5972C401.723 36.6051 401.736 36.6129 401.749 36.6208C402.832 37.2721 403.831 37.8711 404.842 38.4954C407.916 40.3915 411.156 42.5869 414.119 44.6725C415.695 45.7759 417.329 46.978 418.955 48.2084C419.854 48.887 420.786 49.6107 421.626 50.2543C422.093 50.6171 422.565 50.9892 423.039 51.3667C434.087 60.1257 444.271 69.8354 453.753 80.4267C463.203 90.98 471.938 102.449 479.729 114.484C487.542 126.561 494.506 139.401 500.409 152.828C536.499 227.91 525.852 333.463 467.706 403.066C461.766 410.725 455.905 417.934 449.651 425.24C441.262 435.068 432.292 444.866 423.287 454.192C414.31 463.496 405.239 472.411 395.964 481.182C393.195 483.809 390.243 486.565 387.277 489.308Z" fill="url(#paint0_linear_403_1444)" fill-opacity="0.7"/>
</g>
<defs>
<filter id="filter0_f_403_1444" x="33.3408" y="-128.177" width="646.86" height="1220.08" filterUnits="userSpaceOnUse" color-interpolation-filters="sRGB">
<feFlood flood-opacity="0" result="BackgroundImageFix"/>
<feBlend mode="normal" in="SourceGraphic" in2="BackgroundImageFix" result="shape"/>
<feGaussianBlur stdDeviation="75" result="effect1_foregroundBlur_403_1444"/>
</filter>
<linearGradient id="paint0_linear_403_1444" x1="254.421" y1="167.821" x2="565.166" y2="914.839" gradientUnits="userSpaceOnUse">
<stop stop-color="#BE1E1E"/>
<stop offset="0.259609" stop-color="#FFACBC"/>
<stop offset="0.5" stop-color="#FFD2B4"/>
<stop offset="1" stop-color="#FFF2E4"/>
</linearGradient>
</defs>
</svg>
