<svg width="322" height="82" viewBox="0 0 322 82" fill="none" xmlns="http://www.w3.org/2000/svg">
<g clip-path="url(#clip0_403_1512)">
<path d="M-66.969 29.936C-63.7864 -2.00929 -60.6038 -2.00929 -57.4212 29.936C-54.4875 56.8842 -51.3049 56.8842 -47.8734 29.936C-44.6908 2.98774 -41.5082 2.98774 -38.3257 29.936C-35.0798 57.955 -31.8972 57.955 -28.7779 29.936C-25.5953 1.91694 -22.4127 1.91694 -19.2301 29.936C-16.5847 48.4964 -13.4021 48.4964 -9.68232 29.936C-6.49972 11.3756 -3.31713 11.3756 -0.134537 29.936C4.50164 65.4506 7.68424 65.4506 9.41325 29.936C12.5958 -5.57859 15.7784 -5.57859 18.961 29.936C22.0077 62.4166 24.3645 63.4864 29.4279 30.438" stroke="url(#paint0_linear_403_1512)" stroke-width="2"/>
<path d="M29.4277 30.4606C33.4318 11.2252 36.3636 1.49679 40.3676 20.7321C44.3543 39.8002 49.4305 49.5287 53.452 30.4606C57.456 11.3925 61.46 11.3925 65.4641 30.4606C69.6964 51.7031 73.7004 51.7031 77.4762 30.4606C81.4802 9.21806 85.4842 9.21806 89.4883 30.4606C93.5081 51.8704 96.3624 50.1769 101.5 30.4606" stroke="url(#paint1_linear_403_1512)" stroke-width="2"/>
<path d="M101.5 30.4982C106.899 13.4139 113.697 15.8777 119.793 30.5524C125.888 45.2271 131.983 45.2271 138.078 30.5524C144.173 15.8777 150.269 15.8777 156.364 30.5524C162.459 45.2271 168.554 45.2271 174.65 30.5524C180.745 15.8777 186.84 15.8777 192.935 30.5524C199.031 45.2271 205.126 45.2271 211.221 30.5524C217.316 15.8777 231.676 15.8776 237.771 30.5523C243.867 45.227 257.298 45.2271 263.394 30.5524" stroke="url(#paint2_linear_403_1512)" stroke-width="2"/>
<path d="M425.287 30.619C419.889 47.7033 413.09 45.2394 406.995 30.5647C400.899 15.89 394.804 15.89 388.709 30.5647C382.614 45.2394 376.518 45.2394 370.423 30.5647C364.328 15.89 358.233 15.89 352.137 30.5647C346.042 45.2394 339.947 45.2394 333.852 30.5647C327.756 15.89 321.661 15.89 315.566 30.5647C309.471 45.2394 295.111 45.2396 289.016 30.5649C282.921 15.8902 269.489 15.89 263.394 30.5647" stroke="url(#paint3_linear_403_1512)" stroke-width="2"/>
</g>
<defs>
<linearGradient id="paint0_linear_403_1512" x1="29.4279" y1="29.936" x2="-66.969" y2="29.936" gradientUnits="userSpaceOnUse">
<stop stop-color="#FB5F79"/>
<stop offset="0.302905" stop-color="#FB5F79" stop-opacity="0"/>
</linearGradient>
<linearGradient id="paint1_linear_403_1512" x1="101.5" y1="28.338" x2="29.4277" y2="28.338" gradientUnits="userSpaceOnUse">
<stop stop-color="#97C2FF"/>
<stop offset="1" stop-color="#FB5F79"/>
</linearGradient>
<linearGradient id="paint2_linear_403_1512" x1="101.5" y1="30.2007" x2="263.394" y2="30.2007" gradientUnits="userSpaceOnUse">
<stop offset="0.807725" stop-color="#97C2FF"/>
<stop offset="1" stop-color="#AEDDEC"/>
</linearGradient>
<linearGradient id="paint3_linear_403_1512" x1="424.548" y1="30.5474" x2="264.132" y2="30.5477" gradientUnits="userSpaceOnUse">
<stop offset="0.64105" stop-color="#AEDDEC" stop-opacity="0"/>
<stop offset="1" stop-color="#AEDDEC"/>
</linearGradient>
<clipPath id="clip0_403_1512">
<rect width="320.994" height="82" fill="white" transform="translate(0.506104 -0.00854492)"/>
</clipPath>
</defs>
</svg>
