<svg width="17" height="17" viewBox="0 0 17 17" fill="none" xmlns="http://www.w3.org/2000/svg">
<path d="M7.57627 12.2498C7.35133 12.7649 6.63851 12.7649 6.4136 12.2498L5.8285 10.9097C5.30781 9.71713 4.37059 8.7678 3.20153 8.24887L1.59105 7.534C1.07902 7.30674 1.07902 6.56186 1.59105 6.33458L3.15123 5.64203C4.35035 5.10975 5.30438 4.12528 5.81618 2.89201L6.40887 1.46389C6.62879 0.933913 7.36107 0.933912 7.581 1.46389L8.17367 2.89203C8.68547 4.12528 9.63947 5.10975 10.8386 5.64203L12.3988 6.33458C12.9108 6.56186 12.9108 7.30674 12.3988 7.534L10.7883 8.24887C9.61927 8.7678 8.68207 9.71713 8.16133 10.9097L7.57627 12.2498ZM3.52637 6.9343C5.05027 7.61073 6.28935 8.7226 6.99492 10.2525C7.70053 8.7226 8.9396 7.61073 10.4635 6.9343C8.9214 6.24978 7.6784 5.08371 6.99493 3.52665C6.31146 5.08372 5.06845 6.24978 3.52637 6.9343ZM13.4343 15.5127L13.5988 15.1355C13.8921 14.4631 14.4205 13.9277 15.0797 13.6349L15.5866 13.4096C15.8608 13.2878 15.8608 12.8893 15.5866 12.7675L15.1081 12.5549C14.4319 12.2545 13.8941 11.6993 13.6057 11.004L13.4368 10.5965C13.319 10.3125 12.9263 10.3125 12.8085 10.5965L12.6396 11.004C12.3513 11.6993 11.8135 12.2545 11.1373 12.5549L10.6587 12.7675C10.3846 12.8893 10.3846 13.2878 10.6587 13.4096L11.1657 13.6349C11.8249 13.9277 12.3532 14.4631 12.6465 15.1355L12.8111 15.5127C12.9315 15.7887 13.3138 15.7887 13.4343 15.5127ZM12.2578 13.084L13.1247 12.2141L14 13.084L13.1247 13.9641L12.2578 13.084Z" fill="#D677A1"/>
</svg>
