<svg width="10" height="11" viewBox="0 0 10 11" fill="none" xmlns="http://www.w3.org/2000/svg">
<path fill-rule="evenodd" clip-rule="evenodd" d="M1.5 0.467529C0.947715 0.467529 0.5 0.915244 0.5 1.46753V9.46753C0.5 10.0198 0.947715 10.4675 1.5 10.4675H4.5V8.51448L7.5554 5.47293L7.5563 5.47198C7.7253 5.30323 7.93055 5.16508 8.17075 5.07773C8.2769 5.03913 8.38685 5.00983 8.5 4.99113V0.467529H1.5ZM8.5 10.4192L8.4517 10.4675H8.5V10.4192ZM2.5 9.46753V1.46753H3.5V9.46753H2.5ZM5.5 8.93003V10.4675H7.0375L9.7875 7.71753C9.8625 7.64253 9.91665 7.55713 9.95 7.46128C9.98335 7.36543 10 7.27168 10 7.18003C10 7.08838 9.98125 6.99668 9.94375 6.90503C9.90625 6.81338 9.85415 6.73003 9.7875 6.65503L9.325 6.19253C9.25 6.11753 9.16665 6.06128 9.075 6.02378C8.98335 5.98628 8.8875 5.96753 8.7875 5.96753C8.69585 5.96753 8.60415 5.98418 8.5125 6.01753C8.42085 6.05088 8.3375 6.10503 8.2625 6.18003L5.5 8.93003ZM9.25 7.18003L8.7875 7.66753L8.3125 7.19253L8.7875 6.71753L9.25 7.18003Z" fill="#6F6662"/>
</svg>
