<svg width="992" height="912" viewBox="0 0 992 912" fill="none" xmlns="http://www.w3.org/2000/svg">
<g filter="url(#filter0_f_403_1445)">
<path d="M498.643 438.144C508.579 469.218 528.348 494.399 536.624 522.461C547.2 558.135 541.348 588.765 534.411 613.333C527.869 639.178 508.839 667.032 484.119 693.267C474.887 703.139 464.91 712.865 454.055 722.695C438.69 736.941 421.436 748.968 402.283 758.118C371.44 772.996 335.227 779.941 297.681 779.492C272.114 779.242 246.087 775.802 220.055 770.196C208.594 767.73 197.268 764.883 185.78 761.803C177.286 759.62 168.583 756.873 159.565 755.343C157.963 755.084 156.9 755.477 155.615 756.332C154.426 757.231 154.484 758.559 154.811 759.74C155.176 760.942 155.107 762.161 155.268 763.098C155.55 764.054 155.924 764.697 157.018 765.125C163.797 768.106 172.282 772.868 180.032 776.965C188.854 781.663 197.751 786.28 206.933 790.693C210.097 786.395 213.563 783.514 217.816 783.147C220.011 782.969 222.963 783.563 224.818 785.154C226.437 786.57 227.364 788.454 228.298 790.261C229.269 792.149 230.217 793.944 231.857 794.966C234.636 796.698 236.788 799.576 239.256 802.625C240.147 803.732 241.075 804.862 242.048 805.952C251.16 809.48 260.694 812.766 270.224 815.636C274.106 815.829 277.711 816.012 280.604 816.696C283.221 817.314 285.506 818.752 287.794 820.43C289.342 820.807 290.836 821.166 292.363 821.519C302.235 823.794 312.357 825.637 322.548 826.963C330.653 825.861 339.004 824.583 349.822 823.386C354.491 822.863 359.093 821.735 363.397 820.555C369.819 818.807 375.716 816.932 381.154 816.703C384.813 816.547 388.426 815.086 391.931 813.56C396.658 811.51 401.311 809.31 406.21 809.943C409.318 810.334 412.324 810.981 415.15 811.531C419.659 812.401 423.567 813.08 426.637 812.085C432.394 810.215 437.795 809.713 442.619 809.133C448.43 808.428 453.404 807.598 456.341 804.356C456.789 803.862 457.282 803.257 457.831 802.57C460.759 798.918 465.157 793.184 474.11 789.523C477.321 788.202 480.913 787.668 484.316 787.163C489.313 786.398 494.28 785.445 497.656 781.724C497.878 781.479 498.053 781.159 498.197 780.806C498.362 780.373 498.479 779.886 498.589 779.425C498.84 778.374 499.053 777.459 499.71 777.609C501.638 778.05 504.25 778.162 507.081 778.276C509.161 778.36 511.362 778.444 513.503 778.658C522.981 772.23 533.143 764.758 542.42 757.361C546.913 753.758 551.249 750.142 555.433 746.508C555.78 742.958 556.565 739.253 557.634 735.915C559.083 731.495 562.129 727.406 566.088 721.743C569.091 717.466 572.381 712.548 575.45 706.365C581.458 694.576 589.173 683.952 594.678 677.274C595.892 675.793 597.107 674.306 598.385 672.706C603.097 666.637 609.355 659.098 617.295 641.678C624.679 625.143 627.568 609.493 628.865 598.02C629.538 592.129 629.83 587.259 630.149 583.537C630.7 577.155 630.868 569.386 630.61 561.698C630.247 549.679 628.849 538.07 628.398 531.491C628.237 529.125 628.111 526.688 627.942 524.072C627.46 516.784 626.701 508.082 624.196 496.729C621.572 484.938 618.743 478.244 615.209 471.5C613.765 468.756 611.088 466.948 608.3 465.039C604.352 462.356 600.201 459.519 599.274 454.277C599.054 453.042 599.046 451.642 599.036 450.174C599.024 447.494 598.974 444.498 597.647 442.08C597.18 441.224 596.394 440.606 595.623 439.998C594.776 439.331 593.946 438.675 593.568 437.726C592.165 434.196 590.996 430.594 590.018 427.547C588.737 423.567 587.661 420.209 586.485 418.303C584.378 414.879 583.69 410.763 582.971 406.476C582.426 403.211 581.888 399.906 580.769 397.003C577.534 388.608 574.925 376.455 573.512 363.899C572.985 359.176 570.647 355.582 567.771 351.211C565.973 348.454 563.932 345.291 561.974 341.139C560.859 338.764 561.373 336.483 561.839 334.315C562.271 332.328 562.679 330.492 561.794 328.928C561.013 327.547 559.024 327.037 557.133 326.543C555.03 325.998 553.044 325.449 553.012 323.794C552.997 322.922 553.641 321.705 554.411 320.262C554.715 319.691 555.037 319.083 555.349 318.447C554.998 318.556 554.679 318.636 554.437 318.692C552.725 319.087 551.456 317.695 550.219 316.308C549.724 315.755 549.236 315.201 548.723 314.769C547.127 313.426 546.148 310.642 545.582 308.101C545.484 307.666 545.401 307.24 545.33 306.833C545.136 305.716 544.407 304.819 543.564 303.764C542.817 302.828 541.978 301.767 541.362 300.338C541.01 299.524 540.403 298.954 539.897 298.481C539.531 298.139 539.219 297.847 539.104 297.549C539.004 297.291 539.469 296.999 539.993 296.674C540.371 296.44 540.78 296.187 541.032 295.915C541.633 295.265 541.739 294.537 541.451 294.077C541.318 293.864 541.099 293.712 540.881 293.56C540.627 293.383 540.373 293.209 540.255 292.933C539.71 291.619 540.116 290.226 540.554 288.804C541.035 287.239 541.554 285.64 540.893 283.989C540.684 283.469 540.269 282.932 539.869 282.409C539.449 281.863 539.047 281.33 538.915 280.86C538.383 278.96 539.527 277.044 540.601 275.285C541.315 274.122 541.998 273.046 542.134 272.073C542.382 270.285 543.879 269.318 544.982 268.619C545.555 268.257 546.026 267.965 546.167 267.663C546.122 267.387 546.071 267.108 546.016 266.835C545.904 266.585 545.789 266.325 545.826 266.083C545.829 266.064 545.835 266.046 545.838 266.028C545.474 264.505 544.975 262.992 544.499 261.434C543.427 257.971 542.463 254.496 543.404 251.033C543.606 250.294 544.298 249.563 545.005 248.828C545.872 247.929 546.764 247.032 546.822 246.03C546.959 243.643 546.264 241.138 545.633 238.642C544.68 234.892 543.915 230.993 546.206 228.191C546.962 227.265 548.069 226.459 549.187 225.675C549.809 225.242 550.442 224.797 551.015 224.339C550.185 224.258 549.418 224.135 548.702 224.02C547.227 223.785 545.963 223.584 544.773 223.891C541.969 224.584 538.185 225.349 535.72 224.61C535.052 224.408 534.287 224.274 533.515 224.143C531.58 223.813 529.597 223.487 529.026 221.945C528.636 220.923 527.853 218.219 529.699 217.105C530.099 216.864 530.778 216.833 531.531 216.802C532.884 216.744 534.482 216.682 535.204 215.42C535.325 215.208 535.447 214.974 535.569 214.731C536.051 213.764 536.601 212.69 537.723 212.568C539.015 212.428 540.296 212.932 541.791 213.51C543.738 214.269 546.057 215.139 549.206 215.032C549.828 215.011 550.134 214.705 550.366 214.475C550.53 214.313 550.659 214.191 550.832 214.229C551.032 214.273 551.417 214.462 551.904 214.7C553.624 215.546 556.632 216.975 557.379 215.092C557.581 214.587 557.633 213.923 557.678 213.338C557.746 212.473 557.812 211.754 558.353 211.843C558.558 211.877 558.777 211.926 559.001 211.982C559.157 211.331 559.317 210.682 559.481 210.034C559.163 209.013 559.628 207.9 560.23 206.532C560.376 206.2 560.529 205.85 560.682 205.484C561.035 204.219 561.407 202.948 561.797 201.668C561.953 200.592 561.986 199.388 561.822 198.015C561.494 195.265 560.269 192.382 559.138 189.497C558.666 188.273 558.209 187.05 557.843 185.846C557.587 186.112 557.33 186.34 557.064 186.482C555.241 187.454 552.836 187.041 550.613 186.673C549.135 186.429 547.737 186.208 546.658 186.444C544.682 186.879 543.034 185.987 541.817 185.315C541.186 184.968 540.668 184.685 540.28 184.692C539.968 184.698 539.714 184.931 539.453 185.172C539.225 185.382 538.989 185.599 538.705 185.678C535.256 186.647 534.076 185.398 532.393 183.488C531.464 182.439 530.383 181.199 528.667 180.06C526.824 178.912 526.214 178.722 524.894 179.549C524.344 178.187 523.807 176.814 523.283 175.433C523.517 175.099 524.25 175.108 525.43 175.202C527.535 175.372 529.256 173.483 530.631 172.031C531.266 171.36 531.823 170.782 532.291 170.538C534.787 169.246 536.449 170.91 537.927 172.333C538.74 173.119 539.497 173.84 540.285 174.001C540.622 174.07 540.849 174.343 541.082 174.62C541.262 174.833 541.445 175.051 541.682 175.18C543.411 176.113 545.297 175.654 547.044 175.267C548.045 175.044 549.002 174.844 549.857 174.915C550.118 174.937 550.372 174.981 550.617 175.026C550.975 175.092 551.317 175.153 551.649 175.136C552.404 175.098 553.18 174.595 554.032 174.053C554.468 173.774 554.923 173.489 555.408 173.245C556.036 172.928 556.814 173.138 557.626 173.356C558.2 173.511 558.792 173.669 559.363 173.659C560.396 173.64 561.222 172.871 561.996 172.166C562.333 171.859 562.663 171.566 562.989 171.35C563.122 171.262 563.272 171.273 563.436 171.357C564.822 170.285 566.188 169.309 567.527 168.384C574.304 163.711 580.095 160.218 584.807 151.54C585.702 149.905 587.064 148.438 588.613 147.138C592.285 141.85 596.25 136.639 600.424 131.594C600.147 129.423 600.321 127.234 600.958 125.088C602.168 121.049 604.666 118.263 607.761 115.018C610.051 112.621 612.582 110.041 615.308 106.474C619.85 100.52 625.083 94.8012 631.838 89.5852C638.595 84.3486 646.858 79.1319 652.971 75.9073C656.333 74.1205 659.14 71.0818 662.039 68.2165C666.047 64.2132 669.774 60.7698 673.474 62.2661C674.64 62.7496 675.985 63.8486 677.274 64.9276C678.192 65.6959 679.085 66.4501 679.874 66.97C681.228 66.2456 682.594 65.5359 684.013 64.821C686.101 62.2416 689.54 59.1568 694.158 59.9846C695.642 59.3263 697.12 58.692 698.536 58.0886C701.545 56.8128 704.844 55.5558 707.914 54.4452C708.931 54.0773 709.934 53.7211 711.026 53.3609C711.037 53.3572 711.047 53.3534 711.057 53.3497C713.213 52.6322 715.356 51.9643 717.43 51.3525C718.301 51.093 719.244 50.8342 720.175 50.5876C722.547 49.9608 724.854 49.405 727.139 48.9158C728.409 48.6535 729.675 48.4151 730.925 48.1968C732.961 47.8437 734.91 47.5431 737.047 47.3231C740.37 46.9624 743.679 46.7815 746.986 46.864C747.52 46.8749 748.069 46.6893 748.528 46.3299C748.988 45.9695 749.323 45.466 749.46 44.8957C749.595 44.3255 749.52 43.7203 749.24 43.1926C748.96 42.6667 748.495 42.2661 747.956 42.0624C744.605 40.812 741.12 39.8344 737.54 39.064C735.236 38.584 733.112 38.1904 730.865 37.8638C729.485 37.6632 728.08 37.4919 726.66 37.3436C724.108 37.0602 721.495 36.8568 718.793 36.7409C717.731 36.6944 716.656 36.6614 715.654 36.6299C713.263 36.5607 710.778 36.5624 708.26 36.6261C708.245 36.6266 708.23 36.627 708.214 36.6275C706.951 36.6633 705.787 36.695 704.6 36.7429C700.991 36.8861 697.09 37.2085 693.485 37.5717C691.57 37.7592 689.557 38.0048 687.536 38.2789C686.42 38.4289 685.253 38.6019 684.205 38.7504C683.62 38.8373 683.026 38.9299 682.427 39.0259C668.503 41.2354 654.865 44.6969 641.405 49.2706C627.992 53.8274 614.753 59.5331 602.057 66.1952C589.323 72.8823 576.953 80.6511 565.22 89.453C496.926 137.156 454.396 234.347 470.896 323.529C472.312 333.117 473.881 342.275 475.744 351.71C478.229 364.39 481.236 377.329 484.504 389.874C487.759 402.386 491.287 414.605 495.063 426.8C496.187 430.448 497.406 434.298 498.643 438.144Z" fill="url(#paint0_linear_403_1445)" fill-opacity="0.7"/>
</g>
<defs>
<filter id="filter0_f_403_1445" x="4.60791" y="-113.422" width="894.917" height="1090.39" filterUnits="userSpaceOnUse" color-interpolation-filters="sRGB">
<feFlood flood-opacity="0" result="BackgroundImageFix"/>
<feBlend mode="normal" in="SourceGraphic" in2="BackgroundImageFix" result="shape"/>
<feGaussianBlur stdDeviation="75" result="effect1_foregroundBlur_403_1445"/>
</filter>
<linearGradient id="paint0_linear_403_1445" x1="772.184" y1="223.247" x2="134.803" y2="721.588" gradientUnits="userSpaceOnUse">
<stop stop-color="#BE1E1E"/>
<stop offset="0.259609" stop-color="#FFACBC"/>
<stop offset="0.5" stop-color="#FFD2B4"/>
<stop offset="1" stop-color="#FFF2E4"/>
</linearGradient>
</defs>
</svg>
